<svg xmlns="http://www.w3.org/2000/svg" xmlns:xlink="http://www.w3.org/1999/xlink" width="44.182" height="40.257" viewBox="0 0 44.182 40.257"><defs><linearGradient id="linear-gradient" x1="0.104" y1="0.062" x2="0.962" y2="0.97" gradientUnits="objectBoundingBox"><stop offset="0" stop-color="#fff"></stop><stop offset="1" stop-color="#c02633"></stop></linearGradient></defs><path id="_17f2717cf632d12e9e1b776516997acf" data-name="17f2717cf632d12e9e1b776516997acf" d="M43.2,2H1.98A.981.981,0,0,0,1,2.981V20.648a.981.981,0,0,0,.981.98h6.87V40.276a.981.981,0,0,0,.981.98H35.351a.981.981,0,0,0,.98-.981V21.628H43.2a.981.981,0,0,0,.98-.981V2.98A.981.981,0,0,0,43.2,2ZM16.158,39.294H10.814V33.95a3.846,3.846,0,0,1,1.963-.544A3.931,3.931,0,0,1,16.7,37.331,3.817,3.817,0,0,1,16.158,39.294Zm18.21,0H29.024a3.817,3.817,0,0,1-.544-1.963,3.931,3.931,0,0,1,3.926-3.926,3.846,3.846,0,0,1,1.963.544Zm0-7.5a5.851,5.851,0,0,0-7.5,7.5H18.309a5.835,5.835,0,0,0-7.495-7.478v-20H34.368ZM42.22,19.666H36.331V10.832a.981.981,0,0,0-.981-.98H9.832a.981.981,0,0,0-.98.981v8.833H2.963V3.963H42.22ZM22.591,27.517A5.888,5.888,0,1,0,16.7,21.628,5.895,5.895,0,0,0,22.591,27.517Zm0-9.814a3.926,3.926,0,1,1-3.926,3.926A3.931,3.931,0,0,1,22.591,17.7Z" transform="translate(-0.5 -1.5)" stroke="rgba(0,0,0,0)" stroke-width="1" fill="url(#linear-gradient)"></path></svg>