<svg xmlns="http://www.w3.org/2000/svg" xmlns:xlink="http://www.w3.org/1999/xlink" width="46.899" height="46.899" viewBox="0 0 46.899 46.899"><defs><linearGradient id="linear-gradient" x1="0.104" y1="0.062" x2="0.962" y2="0.97" gradientUnits="objectBoundingBox"><stop offset="0" stop-color="#fff"></stop><stop offset="1" stop-color="#c02633"></stop></linearGradient></defs><g id="f392c179708c35d8dd2ff80b387e05c4" transform="translate(-1 -1)"><path id="Path_17806" data-name="Path 17806" d="M30.7,46.209H2.563A1.563,1.563,0,0,1,1,44.646V5.563A1.563,1.563,0,0,1,2.563,4H30.7a1.562,1.562,0,0,1,1.563,1.563V44.646A1.562,1.562,0,0,1,30.7,46.209ZM4.127,43.083H29.14V7.127H4.127Z" transform="translate(0 1.69)" fill="url(#linear-gradient)"></path><path id="Path_17807" data-name="Path 17807" d="M44.646,47.9H29.013a1.562,1.562,0,0,1-1.563-1.563V24.45a1.562,1.562,0,0,1,1.563-1.563H44.646a1.562,1.562,0,0,1,1.563,1.563V46.336A1.562,1.562,0,0,1,44.646,47.9Zm-14.07-3.127H43.083V26.013H30.576ZM21.2,47.9H8.69a1.563,1.563,0,0,1-1.563-1.563V35.393A1.563,1.563,0,0,1,8.69,33.83H21.2a1.563,1.563,0,0,1,1.563,1.563V46.336A1.563,1.563,0,0,1,21.2,47.9ZM10.253,44.773h9.38V36.956h-9.38ZM7.127,8.817A1.563,1.563,0,0,1,5.563,7.253V2.563a1.563,1.563,0,1,1,3.127,0v4.69A1.563,1.563,0,0,1,7.127,8.817Zm6.253,0a1.563,1.563,0,0,1-1.563-1.563V2.563a1.563,1.563,0,0,1,3.127,0v4.69A1.563,1.563,0,0,1,13.38,8.817Zm3.127,6.253H13.38a1.563,1.563,0,1,1,0-3.127h3.127a1.563,1.563,0,1,1,0,3.127Zm7.817,0H21.2a1.563,1.563,0,0,1,0-3.127h3.127a1.563,1.563,0,0,1,0,3.127Zm-15.633,0H5.563a1.563,1.563,0,1,1,0-3.127H8.69a1.563,1.563,0,0,1,0,3.127Zm7.817,7.817H13.38a1.563,1.563,0,1,1,0-3.127h3.127a1.563,1.563,0,1,1,0,3.127Zm7.817,0H21.2a1.563,1.563,0,0,1,0-3.127h3.127a1.563,1.563,0,0,1,0,3.127Zm-15.633,0H5.563a1.563,1.563,0,1,1,0-3.127H8.69a1.563,1.563,0,1,1,0,3.127ZM16.507,30.7H13.38a1.563,1.563,0,1,1,0-3.127h3.127a1.563,1.563,0,0,1,0,3.127Zm7.817,0H21.2a1.563,1.563,0,0,1,0-3.127h3.127a1.563,1.563,0,0,1,0,3.127ZM8.69,30.7H5.563a1.563,1.563,0,0,1,0-3.127H8.69a1.563,1.563,0,0,1,0,3.127Z" transform="translate(1.69)" fill="url(#linear-gradient)"></path><path id="Path_17808" data-name="Path 17808" d="M29.817,22.127H23.563a1.563,1.563,0,0,1,0-3.127h6.253a1.563,1.563,0,1,1,0,3.127Zm0,6.253H23.563a1.563,1.563,0,0,1,0-3.127h6.253a1.563,1.563,0,1,1,0,3.127Z" transform="translate(11.83 10.14)" fill="url(#linear-gradient)"></path></g></svg>