<svg xmlns="http://www.w3.org/2000/svg" xmlns:xlink="http://www.w3.org/1999/xlink" width="46.569" height="46.57" viewBox="0 0 46.569 46.57"><defs><linearGradient id="linear-gradient" x1="0.104" y1="0.062" x2="0.962" y2="0.97" gradientUnits="objectBoundingBox"><stop offset="0" stop-color="#fff"></stop><stop offset="1" stop-color="#c02633"></stop></linearGradient></defs><path id="_1b9825165dedbecb9b1f54ff77e3d440" data-name="1b9825165dedbecb9b1f54ff77e3d440" d="M4.657,44.241V2.328A2.328,2.328,0,0,0,0,2.328V44.241a2.328,2.328,0,0,0,4.657,0Zm39.584-4.657h-32.6a2.328,2.328,0,1,1,0-4.657h32.6a2.328,2.328,0,1,1,0,4.657ZM11.642,16.3h9.314a2.328,2.328,0,1,1,0,4.657H11.642a2.328,2.328,0,1,1,0-4.657Zm0,9.314H30.27a2.328,2.328,0,1,1,0,4.657H11.642a2.328,2.328,0,1,1,0-4.657ZM39.584,11.642H11.642a2.328,2.328,0,1,1,0-4.657H39.584a2.328,2.328,0,1,1,0,4.657Z" transform="translate(0 46.57) rotate(-90)" fill="url(#linear-gradient)"></path></svg>