<svg xmlns="http://www.w3.org/2000/svg" xmlns:xlink="http://www.w3.org/1999/xlink" width="50" height="46.57" viewBox="0 0 50 46.57"><defs><linearGradient id="linear-gradient" x1="0.104" y1="0.062" x2="0.962" y2="0.97" gradientUnits="objectBoundingBox"><stop offset="0" stop-color="#fff"></stop><stop offset="1" stop-color="#c02633"></stop></linearGradient></defs><path id="d2b1a690996b27cec588ce114d4bdec8" d="M66.523,32.14H56.814C56.291,27.488,53.442,24,49.837,24H42.163a6.263,6.263,0,0,0-5.174,3.023,10.584,10.584,0,0,0-1.8,5.116H25.477A4.542,4.542,0,0,0,21,36.733V65.977a4.542,4.542,0,0,0,4.477,4.593H66.523A4.542,4.542,0,0,0,71,65.977V36.733A4.5,4.5,0,0,0,66.523,32.14ZM49.779,45.512H42.221a3.3,3.3,0,0,0-3.2,3.372V50.57C29.14,48.3,24.6,46.267,23.907,45.337V37.2a1.7,1.7,0,0,1,1.8-1.57H66.291a1.7,1.7,0,0,1,1.8,1.57v8.081c-.7.93-5.233,2.965-15.116,5.291V48.884A3.3,3.3,0,0,0,49.779,45.512Zm.058,2.907a.25.25,0,0,1,.233.233V52.43a3.824,3.824,0,0,1-3.721,3.9,3.911,3.911,0,0,1-3.837-4.012v-3.6a.25.25,0,0,1,.233-.233h7.093ZM39.372,29.233a3.755,3.755,0,0,1,2.791-1.744h7.674c1.977,0,3.663,2.267,4.07,5.233H38.093A8.071,8.071,0,0,1,39.372,29.233ZM66.581,67.6H25.419a1.539,1.539,0,0,1-1.512-1.512V48.709c2.5,1.279,7.035,2.849,15.349,4.651a6.947,6.947,0,0,0,6.86,5.93,6.829,6.829,0,0,0,6.744-5.93c8.314-1.8,12.849-3.372,15.291-4.651V66.093A1.634,1.634,0,0,1,66.581,67.6Z" transform="translate(-21 -24)" fill="url(#linear-gradient)"></path></svg>