<svg xmlns="http://www.w3.org/2000/svg" xmlns:xlink="http://www.w3.org/1999/xlink" width="27.989" height="46.647" viewBox="0 0 27.989 46.647"><defs><linearGradient id="linear-gradient" x1="0.104" y1="0.062" x2="0.962" y2="0.97" gradientUnits="objectBoundingBox"><stop offset="0" stop-color="#fff"></stop><stop offset="1" stop-color="#c02633"></stop></linearGradient></defs><g id="_649fcc412f049cd3e3ec875fee5fb7ec" data-name="649fcc412f049cd3e3ec875fee5fb7ec" transform="translate(-23 -5)"><path id="Path_18856" data-name="Path 18856" d="M47.879,17.439H42.753l5.069-7.6A3.11,3.11,0,0,0,45.235,5H42.96a3.1,3.1,0,0,0-2.586,1.389L37.051,11.37,33.47,6.316A3.108,3.108,0,0,0,30.93,5H28.758a3.113,3.113,0,0,0-2.54,4.908l5.333,7.531H26.11A3.116,3.116,0,0,0,23,20.549V48.538a3.112,3.112,0,0,0,3.11,3.11H47.879a3.112,3.112,0,0,0,3.11-3.11V20.549A3.116,3.116,0,0,0,47.879,17.439ZM42.1,7.54a1.031,1.031,0,0,1,.86-.466h2.275a1.037,1.037,0,0,1,.86,1.612l-5.307,7.961-2.452-3.462ZM27.914,8.711a1.006,1.006,0,0,1-.078-1.073,1.025,1.025,0,0,1,.923-.565H30.93a1.049,1.049,0,0,1,.85.441l7.033,9.926H34.1Zm21,39.827a1.037,1.037,0,0,1-1.037,1.037H26.11a1.037,1.037,0,0,1-1.037-1.037V36.1H48.915ZM34.931,30.361a4.114,4.114,0,0,0,4.126,0,4.693,4.693,0,0,1,2.576,3.664H32.361A4.688,4.688,0,0,1,34.931,30.361Zm-.01-3.592a2.073,2.073,0,1,1,2.073,2.072,2.079,2.079,0,0,1-2.073-2.072Zm13.994,7.256H43.706a6.734,6.734,0,0,0-3.131-5.178,4.092,4.092,0,0,0,.565-2.078,4.146,4.146,0,0,0-8.293,0,4.092,4.092,0,0,0,.565,2.078,6.762,6.762,0,0,0-3.131,5.178H25.073V20.549a1.04,1.04,0,0,1,1.037-1.037H47.879a1.04,1.04,0,0,1,1.037,1.037Z" fill="url(#linear-gradient)"></path><path id="Path_18857" data-name="Path 18857" d="M34.037,73.073h3.11a1.037,1.037,0,1,0,0-2.073h-3.11a1.037,1.037,0,1,0,0,2.073Zm0,5.183h3.11a1.037,1.037,0,1,0,0-2.073h-3.11a1.037,1.037,0,1,0,0,2.073Zm8.293-5.183h7.256a1.037,1.037,0,1,0,0-2.073H42.329a1.037,1.037,0,0,0,0,2.073Zm0,5.183h7.256a1.037,1.037,0,1,0,0-2.073H42.329a1.037,1.037,0,0,0,0,2.073Z" transform="translate(-4.817 -31.792)" fill="url(#linear-gradient)"></path></g></svg>