<svg xmlns="http://www.w3.org/2000/svg" xmlns:xlink="http://www.w3.org/1999/xlink" width="47.899" height="47.899" viewBox="0 0 47.899 47.899"><defs><linearGradient id="linear-gradient" x1="0.104" y1="0.062" x2="0.962" y2="0.97" gradientUnits="objectBoundingBox"><stop offset="0" stop-color="#fff"></stop><stop offset="1" stop-color="#c02633"></stop></linearGradient></defs><path id="_11ed9817eb2eea4427349f86a5b94c2f" data-name="11ed9817eb2eea4427349f86a5b94c2f" d="M45.768,35.109H3.132a2.132,2.132,0,0,0,0,4.264H45.768a2.132,2.132,0,0,0,0-4.264Zm0,8.527H3.132a2.132,2.132,0,1,0,0,4.264H45.768a2.132,2.132,0,1,0,0-4.264ZM11.659,13.791a2.132,2.132,0,1,0,2.132,2.132A2.132,2.132,0,0,0,11.659,13.791ZM41.5,1H7.4A6.4,6.4,0,0,0,1,7.4V24.45a6.4,6.4,0,0,0,6.4,6.4H41.5a6.4,6.4,0,0,0,6.4-6.4V7.4A6.4,6.4,0,0,0,41.5,1Zm2.132,23.45A2.132,2.132,0,0,1,41.5,26.581H7.4A2.132,2.132,0,0,1,5.264,24.45V7.4A2.132,2.132,0,0,1,7.4,5.264H41.5A2.132,2.132,0,0,1,43.636,7.4ZM24.45,9.527a6.4,6.4,0,1,0,6.4,6.4A6.4,6.4,0,0,0,24.45,9.527Zm0,8.527a2.132,2.132,0,1,1,2.132-2.132A2.132,2.132,0,0,1,24.45,18.054ZM37.24,13.791a2.132,2.132,0,1,0,2.132,2.132A2.132,2.132,0,0,0,37.24,13.791Z" transform="translate(-0.5 -0.5)" stroke="#233659" stroke-width="1" fill="url(#linear-gradient)"></path></svg>